<svg width="114" height="49" viewBox="0 0 114 49" fill="none" xmlns="http://www.w3.org/2000/svg">
<path d="M12.2175 36.288C11.4735 36.288 10.8975 36.084 10.4895 35.676C10.1055 35.244 9.91348 34.656 9.91348 33.912V14.472H2.89348C2.26948 14.472 1.77748 14.304 1.41748 13.968C1.08148 13.608 0.913484 13.128 0.913484 12.528C0.913484 11.904 1.08148 11.436 1.41748 11.124C1.77748 10.788 2.26948 10.62 2.89348 10.62H21.5415C22.1655 10.62 22.6455 10.788 22.9815 11.124C23.3415 11.436 23.5215 11.904 23.5215 12.528C23.5215 13.128 23.3415 13.608 22.9815 13.968C22.6455 14.304 22.1655 14.472 21.5415 14.472H14.5215V33.912C14.5215 34.656 14.3295 35.244 13.9455 35.676C13.5615 36.084 12.9855 36.288 12.2175 36.288ZM25.2124 36.288C24.4684 36.288 23.8924 36.096 23.4844 35.712C23.1004 35.304 22.9084 34.728 22.9084 33.984V20.376C22.9084 19.632 23.1004 19.068 23.4844 18.684C23.8684 18.3 24.4084 18.108 25.1044 18.108C25.8004 18.108 26.3404 18.3 26.7244 18.684C27.1084 19.068 27.3004 19.632 27.3004 20.376V22.644H26.9404C27.2764 21.204 27.9364 20.112 28.9204 19.368C29.9044 18.624 31.2124 18.18 32.8444 18.036C33.3484 17.988 33.7444 18.12 34.0324 18.432C34.3444 18.72 34.5244 19.176 34.5724 19.8C34.6204 20.4 34.4764 20.892 34.1404 21.276C33.8284 21.636 33.3484 21.852 32.7004 21.924L31.9084 21.996C30.4444 22.14 29.3404 22.596 28.5964 23.364C27.8524 24.108 27.4804 25.164 27.4804 26.532V33.984C27.4804 34.728 27.2884 35.304 26.9044 35.712C26.5204 36.096 25.9564 36.288 25.2124 36.288ZM64.6889 36.36C62.8409 36.36 61.2329 35.988 59.8649 35.244C58.4969 34.476 57.4409 33.396 56.6969 32.004C55.9529 30.612 55.5809 28.98 55.5809 27.108C55.5809 25.692 55.7849 24.432 56.1929 23.328C56.6249 22.2 57.2369 21.252 58.0289 20.484C58.8209 19.692 59.7809 19.092 60.9089 18.684C62.0369 18.252 63.2969 18.036 64.6889 18.036C65.4809 18.036 66.3329 18.144 67.2449 18.36C68.1809 18.576 69.0569 18.936 69.8729 19.44C70.2569 19.68 70.5089 19.968 70.6289 20.304C70.7489 20.64 70.7729 20.988 70.7009 21.348C70.6289 21.684 70.4729 21.984 70.2329 22.248C70.0169 22.488 69.7409 22.644 69.4049 22.716C69.0689 22.764 68.6969 22.68 68.2889 22.464C67.7609 22.152 67.2209 21.924 66.6689 21.78C66.1169 21.612 65.5889 21.528 65.0849 21.528C64.2929 21.528 63.5969 21.66 62.9969 21.924C62.3969 22.164 61.8809 22.524 61.4489 23.004C61.0409 23.46 60.7289 24.036 60.5129 24.732C60.2969 25.428 60.1889 26.232 60.1889 27.144C60.1889 28.92 60.6089 30.324 61.4489 31.356C62.3129 32.364 63.5249 32.868 65.0849 32.868C65.5889 32.868 66.1049 32.796 66.6329 32.652C67.1849 32.508 67.7369 32.28 68.2889 31.968C68.6969 31.752 69.0569 31.68 69.3689 31.752C69.7049 31.824 69.9809 31.992 70.1969 32.256C70.4129 32.496 70.5449 32.796 70.5929 33.156C70.6409 33.492 70.5929 33.828 70.4489 34.164C70.3289 34.5 70.0889 34.776 69.7289 34.992C68.9369 35.472 68.0969 35.82 67.2089 36.036C66.3209 36.252 65.4809 36.36 64.6889 36.36ZM75.7654 36.288C75.0454 36.288 74.4934 36.096 74.1094 35.712C73.7254 35.304 73.5334 34.728 73.5334 33.984V12.6C73.5334 11.856 73.7254 11.292 74.1094 10.908C74.4934 10.524 75.0454 10.332 75.7654 10.332C76.4854 10.332 77.0374 10.524 77.4214 10.908C77.8294 11.292 78.0334 11.856 78.0334 12.6V25.884H78.1054L84.0454 19.62C84.5254 19.14 84.9454 18.768 85.3054 18.504C85.6654 18.24 86.1574 18.108 86.7814 18.108C87.4054 18.108 87.8734 18.276 88.1854 18.612C88.5214 18.924 88.6894 19.308 88.6894 19.764C88.6894 20.22 88.4734 20.676 88.0414 21.132L81.7774 27.756V25.884L88.6534 33.3C89.0854 33.756 89.2774 34.224 89.2294 34.704C89.2054 35.16 89.0134 35.544 88.6534 35.856C88.2934 36.144 87.8374 36.288 87.2854 36.288C86.6134 36.288 86.0734 36.156 85.6654 35.892C85.2814 35.628 84.8494 35.232 84.3694 34.704L78.1054 28.152H78.0334V33.984C78.0334 35.52 77.2774 36.288 75.7654 36.288ZM95.5701 36.288C94.8261 36.288 94.2501 36.084 93.8421 35.676C93.4581 35.244 93.2661 34.656 93.2661 33.912V12.96C93.2661 12.192 93.4701 11.616 93.8781 11.232C94.2861 10.824 94.8621 10.62 95.6061 10.62H104.282C107.066 10.62 109.214 11.316 110.726 12.708C112.238 14.1 112.994 16.044 112.994 18.54C112.994 21.036 112.238 22.992 110.726 24.408C109.214 25.8 107.066 26.496 104.282 26.496H97.8741V33.912C97.8741 34.656 97.6821 35.244 97.2981 35.676C96.9141 36.084 96.3381 36.288 95.5701 36.288ZM97.8741 22.86H103.562C105.194 22.86 106.43 22.5 107.27 21.78C108.11 21.036 108.53 19.956 108.53 18.54C108.53 17.124 108.11 16.056 107.27 15.336C106.43 14.616 105.194 14.256 103.562 14.256H97.8741V22.86Z" fill="url(#paint0_linear_103_522)"/>
<path fill-rule="evenodd" clip-rule="evenodd" d="M44.5305 41.6935C47.0465 41.6935 49.0861 39.6538 49.0861 37.1378C49.0861 34.6218 47.0465 32.5822 44.5305 32.5822C42.0145 32.5822 39.9749 34.6218 39.9749 37.1378C39.9749 39.6538 42.0145 41.6935 44.5305 41.6935ZM44.5305 42.6935C47.5988 42.6935 50.0861 40.2061 50.0861 37.1378C50.0861 36.77 50.0504 36.4104 49.9821 36.0625C50.1167 36.1018 50.258 36.1226 50.4025 36.1226H52.0447C51.965 35.78 51.8625 35.4461 51.739 35.1226H50.4025C50.208 35.1226 50.0312 35.0098 49.9492 34.8334L48.2028 31.0781C47.768 30.8408 47.3079 30.644 46.8277 30.4926L47.844 32.6781C46.9189 31.9896 45.7723 31.5822 44.5305 31.5822C43.2887 31.5822 42.1421 31.9896 41.217 32.678L42.2452 30.4671C41.7698 30.6111 41.3137 30.7995 40.8817 31.0276L39.1119 34.8334C39.0298 35.0098 38.853 35.1226 38.6585 35.1226H37.2513C37.1278 35.4461 37.0254 35.78 36.9456 36.1226H38.6585C38.803 36.1226 38.9443 36.1018 39.0788 36.0626C39.0106 36.4104 38.9749 36.77 38.9749 37.1378C38.9749 40.2061 41.4622 42.6935 44.5305 42.6935ZM35.9373 36.049C35.1475 35.7914 34.6821 34.9014 35.011 34.0705L43.1358 13.5448C43.6361 12.2809 45.4249 12.281 45.9252 13.5449L54.05 34.0705C54.388 34.9245 53.887 35.8408 53.0573 36.0689C52.9878 35.7398 52.8998 35.4176 52.7944 35.1033C53.0679 35.0249 53.2321 34.7215 53.1202 34.4386L44.9954 13.9129C44.8286 13.4916 44.2324 13.4916 44.0656 13.9129L35.9409 34.4386C35.8378 34.699 35.9688 34.9768 36.2036 35.0805C36.097 35.3956 36.0078 35.7189 35.9373 36.049ZM41.5204 29.6541C41.9293 29.5063 42.3523 29.3882 42.7869 29.3022L44.0771 26.5277C44.2564 26.1422 44.8046 26.1422 44.9839 26.5277L46.2814 29.318C46.7189 29.4087 47.1443 29.5321 47.5551 29.6854L45.8906 26.1061C45.3527 24.9494 43.7083 24.9494 43.1704 26.1061L41.5204 29.6541Z" fill="#FFB053"/>
<defs>
<linearGradient id="paint0_linear_103_522" x1="-110.292" y1="-15.6695" x2="105.198" y2="100.509" gradientUnits="userSpaceOnUse">
<stop offset="0.572917" stop-color="#C19BFF"/>
<stop offset="1" stop-color="#007EA7"/>
</linearGradient>
</defs>
</svg>
